<svg xmlns="http://www.w3.org/2000/svg" width="128" height="128" viewBox="0 0 128 128">
  <title>3D DESIGN</title>
  <g>
    <g>
      <rect x="1.75" y="1.749" width="124.5" height="92.708" rx="8" fill="#4d5e80"/>
      <rect x="9.75" y="9.748" width="108.5" height="76.708" fill="#f3f5f9"/>
      <rect x="41.594" y="94.457" width="44.813" height="17.482" fill="#e1e6f0"/>
      <path d="M33.344,111.939H94.656a6,6,0,0,1,6,6v8.313a0,0,0,0,1,0,0H27.344a0,0,0,0,1,0,0v-8.313A6,6,0,0,1,33.344,111.939Z" fill="#4d5e80"/>
      <polygon points="56.292 66.847 38.05 56.839 38.05 36.595 56.292 46.603 56.292 66.847" fill="#4d5e80"/>
      <polygon points="56.292 66.847 84.542 56.839 84.542 36.595 56.292 46.603 56.292 66.847" fill="#3d4566"/>
      <polygon points="38.05 36.595 48.667 27.159 56.292 46.603 38.05 36.595" fill="#ffdf40"/>
      <polygon points="48.667 27.159 75.292 20.159 84.542 36.595 56.292 46.603 48.667 27.159" fill="#ffbe40"/>
      <g>
        <path d="M97.923,54.1V38.8a1.744,1.744,0,0,0,2.518-2.407L97.5,32.951a1.774,1.774,0,0,0-2.661,0l-2.938,3.438A1.744,1.744,0,0,0,94.423,38.8V54.1a1.745,1.745,0,0,0-2.518,2.41l2.938,3.438a1.775,1.775,0,0,0,2.661,0l2.937-3.438a1.745,1.745,0,0,0-2.518-2.41Z" fill="#e1e6f0"/>
        <path d="M88.523,65.385a1.8,1.8,0,0,0-1.089-1.191l-4.249-1.548a1.746,1.746,0,0,0-1.376,3.2l-14.333,5.36a1.746,1.746,0,0,0-3.14-1.514L62.145,73.65a1.775,1.775,0,0,0,.932,2.493l4.249,1.547a1.746,1.746,0,0,0,1.376-3.2l14.333-5.36a1.746,1.746,0,0,0,3.14,1.515l2.191-3.956A1.825,1.825,0,0,0,88.523,65.385Z" fill="#e1e6f0"/>
        <path d="M52.45,73.944c-.015-.1-.06-.2-.085-.3l-1.662-4.2a1.745,1.745,0,0,0-3.309,1.1L33.872,63.369a1.745,1.745,0,0,0-.952-3.353L28.507,61a1.774,1.774,0,0,0-1.245,2.351l1.662,4.205a1.751,1.751,0,0,0,1.628,1.108,1.746,1.746,0,0,0,1.681-2.2l13.522,7.165a1.745,1.745,0,0,0,.951,3.353l4.413-.986A1.771,1.771,0,0,0,52.45,73.944Z" fill="#e1e6f0"/>
      </g>
    </g>
    <g>
      <path d="M118.25,0H9.75A9.762,9.762,0,0,0,0,9.748V86.457a9.761,9.761,0,0,0,9.75,9.75H39.844v13.982h-6.5a7.759,7.759,0,0,0-7.75,7.75v8.313a1.75,1.75,0,0,0,1.75,1.75h73.312a1.75,1.75,0,0,0,1.75-1.75v-8.313a7.759,7.759,0,0,0-7.75-7.75h-6.5V96.207H118.25a9.761,9.761,0,0,0,9.75-9.75V9.748A9.762,9.762,0,0,0,118.25,0ZM98.906,117.939V124.5H29.094v-6.563a4.255,4.255,0,0,1,4.25-4.25H94.656A4.255,4.255,0,0,1,98.906,117.939Zm-14.25-7.75H43.344V96.207H84.656ZM124.5,86.457a6.257,6.257,0,0,1-6.25,6.25H9.75a6.257,6.257,0,0,1-6.25-6.25V9.748A6.257,6.257,0,0,1,9.75,3.5h108.5a6.257,6.257,0,0,1,6.25,6.25Z"/>
      <path d="M35.563,84.707H30.147a1.75,1.75,0,1,0,0,3.5h5.416a1.75,1.75,0,0,0,0-3.5Z"/>
      <path d="M118.25,8H9.75A1.751,1.751,0,0,0,8,9.748V86.457a1.751,1.751,0,0,0,1.75,1.75h7.438a1.75,1.75,0,1,0,0-3.5H11.5V11.5h105V84.707H48.522a1.75,1.75,0,1,0,0,3.5H118.25a1.751,1.751,0,0,0,1.75-1.75V9.748A1.751,1.751,0,0,0,118.25,8Z"/>
      <path d="M51.014,28.351l24.723-6.5a1.75,1.75,0,0,0-.89-3.385l-26.6,6.994-.01,0-.014,0a1.772,1.772,0,0,0-.357.138c-.031.016-.058.04-.088.058a1.678,1.678,0,0,0-.24.166.378.378,0,0,0-.033.022L36.887,35.287c-.016.014-.027.033-.042.048a1.7,1.7,0,0,0-.126.143,1.632,1.632,0,0,0-.147.2,1.462,1.462,0,0,0-.088.166,1.831,1.831,0,0,0-.092.225,1.6,1.6,0,0,0-.047.184,1.789,1.789,0,0,0-.032.244c0,.035-.013.068-.013.1V56.839a1.75,1.75,0,0,0,.908,1.534L55.45,68.381a1.846,1.846,0,0,0,.213.084,1.522,1.522,0,0,0,.146.057,1.732,1.732,0,0,0,.483.075,1.751,1.751,0,0,0,.53-.091c.018-.006.037,0,.055-.01l28.25-10.008a1.749,1.749,0,0,0,1.165-1.649V36.6c0-.021-.007-.041-.008-.062a1.58,1.58,0,0,0-.028-.237c-.009-.054-.016-.107-.03-.159a1.848,1.848,0,0,0-.084-.225,1.567,1.567,0,0,0-.063-.146c0-.009-.007-.02-.012-.029l-4.152-7.378a1.75,1.75,0,0,0-3.05,1.717L82,35.641,69.343,40.123,57.3,44.388Zm-3.06,1.784,2.751,7.014,2.194,5.6L47.341,39.7l-6.274-3.442ZM39.8,39.551l.418.229,14.324,7.859V63.891L39.8,55.8ZM82.792,55.6,58.042,64.37V47.84l24.75-8.768Z"/>
      <path d="M92.1,54.045a1.749,1.749,0,0,0-.194,2.467l2.938,3.438a1.775,1.775,0,0,0,2.661,0l2.937-3.438a1.745,1.745,0,0,0-2.518-2.41V38.8a1.744,1.744,0,0,0,2.518-2.407L97.5,32.951a1.774,1.774,0,0,0-2.661,0l-2.938,3.438A1.744,1.744,0,0,0,94.423,38.8V54.1A1.744,1.744,0,0,0,92.1,54.045Z"/>
      <path d="M88.554,65.556a1.762,1.762,0,0,0-1.12-1.362l-4.249-1.548a1.746,1.746,0,0,0-1.376,3.2l-14.333,5.36a1.746,1.746,0,0,0-3.14-1.514L62.145,73.65a1.775,1.775,0,0,0,.932,2.493l4.249,1.547a1.746,1.746,0,0,0,1.376-3.2l14.333-5.36a1.746,1.746,0,0,0,3.14,1.515l2.191-3.956A1.768,1.768,0,0,0,88.554,65.556Z"/>
      <path d="M51.23,75.957a1.761,1.761,0,0,0,1.135-2.314l-1.662-4.2a1.745,1.745,0,0,0-3.309,1.1L33.872,63.369a1.745,1.745,0,0,0-.952-3.353L28.507,61a1.774,1.774,0,0,0-1.245,2.351l1.662,4.205a1.751,1.751,0,0,0,1.628,1.108,1.746,1.746,0,0,0,1.681-2.2l13.522,7.165a1.745,1.745,0,0,0,.951,3.353l4.413-.986C51.158,75.985,51.192,75.968,51.23,75.957Z"/>
    </g>
  </g>
</svg>
